HIERARCHY
ROOT Hips
{
	OFFSET 0.00000 0.00000 0.00000
	CHANNELS 6 Xposition Yposition Zposition Zrotation Yrotation Xrotation 
	JOINT LHipJoint
	{
		OFFSET 0 0 0
		CHANNELS 3 Zrotation Yrotation Xrotation
		JOINT LeftHip
		{
			OFFSET 1.78158 -1.79992 1.25746
			CHANNELS 3 Zrotation Yrotation Xrotation
			JOINT LeftKnee
			{
				OFFSET 2.48433 -6.82566 0.00000
				CHANNELS 3 Zrotation Yrotation Xrotation
				JOINT LeftAnkle
				{
					OFFSET 2.69722 -7.41057 0.00000
					CHANNELS 3 Zrotation Yrotation Xrotation
					JOINT LeftToe
					{
						OFFSET 0.10733 -0.29489 1.75071
						CHANNELS 3 Zrotation Yrotation Xrotation
						End Site
						{
							OFFSET 0.00000 -0.00000 0.90224
						}
					}
				}
			}
		}
	}
	JOINT RHipJoint
	{
		OFFSET 0 0 0
		CHANNELS 3 Zrotation Yrotation Xrotation
		JOINT RightHip
		{
			OFFSET -1.91234 -1.79993 1.25746
			CHANNELS 3 Zrotation Yrotation Xrotation
			JOINT RightKnee
			{
				OFFSET -2.33122 -6.40498 0.00000
				CHANNELS 3 Zrotation Yrotation Xrotation
				JOINT RightAnkle
				{
					OFFSET -2.75667 -7.57390 0.00000
					CHANNELS 3 Zrotation Yrotation Xrotation
					JOINT RightToe
					{
						OFFSET -0.15946 -0.43811 1.78925
						CHANNELS 3 Zrotation Yrotation Xrotation
						End Site
						{
							OFFSET -0.00000 -0.00000 0.93158
						}
					}
				}
			}
		}
	}
	JOINT lowerback
	{
		OFFSET 0 0 0
		CHANNELS 3 Zrotation Yrotation Xrotation
		JOINT Chest
		{
			OFFSET -0.02267 2.03993 -0.26238
			CHANNELS 3 Zrotation Yrotation Xrotation
			JOINT Chest2
			{
				OFFSET 0.02263 2.06220 -0.00892
				CHANNELS 3 Zrotation Yrotation Xrotation
				JOINT lowerneck
				{
					OFFSET 0 0 0
					CHANNELS 3 Zrotation Yrotation Xrotation
					JOINT Neck
					{
						OFFSET -0.06177 1.95978 0.28606
						CHANNELS 3 Zrotation Yrotation Xrotation
						JOINT Head
						{
							OFFSET 0.08482 1.96576 -0.43252
							CHANNELS 3 Zrotation Yrotation Xrotation
							End Site
							{
								OFFSET 0.02787 2.02739 -0.18071
							}
						}
					}
				}
				JOINT LeftCollar
				{
					OFFSET 0 0 0
					CHANNELS 3 Zrotation Yrotation Xrotation
					JOINT LeftShoulder
					{
						OFFSET 3.80978 1.64906 0.29973
CHANNELS 3 Zrotation Xrotation Yrotation
						JOINT LeftElbow
						{
OFFSET 0 -4.930420 0.000000
CHANNELS 3 Zrotation Xrotation Yrotation
							JOINT LeftWrist
							{
OFFSET 0 -3.681770 0.000000
CHANNELS 3 Zrotation Xrotation Yrotation
								JOINT lhand
								{
									OFFSET 0 0 0
CHANNELS 3 Zrotation Xrotation Yrotation
									JOINT LFingers
									{
OFFSET 0 -0.721480 0.000000
CHANNELS 3 Zrotation Xrotation Yrotation
										End Site
										{
OFFSET 0 -0.581680 0.000000
										}
									}
								}
								JOINT LThumb
								{
OFFSET 0 0.000000 0.000000
CHANNELS 3 Zrotation Xrotation Yrotation
									End Site
									{
OFFSET 0 -0.590560 0.590560
									}
								}
							}
						}
					}
				}
				JOINT RightCollar
				{
					OFFSET 0 0 0
					CHANNELS 3 Zrotation Yrotation Xrotation
					JOINT RightShoulder
					{
						OFFSET -3.49270 1.85636 0.09297
CHANNELS 3 Zrotation Xrotation Yrotation
						JOINT RightElbow
						{
OFFSET 0 -5.079050 -0.000000
CHANNELS 3 Zrotation Xrotation Yrotation
							JOINT RightWrist
							{
OFFSET 0 -3.543940 0.000000
CHANNELS 3 Zrotation Xrotation Yrotation
								JOINT rhand
								{
									OFFSET 0 0 0
CHANNELS 3 Zrotation Xrotation Yrotation
									JOINT RFingers
									{
OFFSET 0 -0.681160 0.000000
CHANNELS 3 Zrotation Xrotation Yrotation
										End Site
										{
OFFSET 0 -0.549170 0.000000
										}
									}
								}
								JOINT RThumb
								{
OFFSET 0 0.000000 0.000000
CHANNELS 3 Zrotation Xrotation Yrotation
									End Site
									{
OFFSET 0 -0.557550 0.557550
									}
								}
							}
						}
					}
				}
			}
		}
	}
}
MOTION
Frames: 9
Frame Time: 0.008333333333333333
-10.675000 17.969900 -16.381100 -108.641000 87.724000 -104.198000 0.000000 0.000000 0.000000 -9.448700 -21.520200 -3.601900 1.410600 7.512000 21.241500 1.393500 6.201100 -25.308400 0.410000 -4.110500 -11.387800 0.000000 0.000000 0.000000 13.703800 -3.935200 1.266700 0.000000 -0.000000 0.000000 0.135800 -9.516400 -10.856500 -0.053800 1.497400 -4.118500 0.713900 0.040100 4.928400 1.322800 0.170700 -1.827200 0.952200 0.088500 -4.656900 -8.080100 -4.992700 -22.366800 4.924400 -5.436000 28.892900 2.368600 -2.429300 13.973500 0.000000 0.000000 0.000000 -2.455000 5.009100 -12.097500 11.916800 -19.679700 2.074200 33.387700 -8.944900 -4.775200 0.000000 0.000000 0.000000 -7.125000 0.000000 0.000000 5.620000 35.646400 1.296900 0.000000 0.000000 0.000000 -7.047900 6.338300 19.478200 -15.557800 -24.917500 -3.457600 -15.576100 25.416800 13.274700 0.000000 0.000000 0.000000 7.125000 0.000000 -0.000000 10.735900 43.480400 0.407600
-10.668663 17.968145 -16.379930 -108.982235 87.689291 -104.580184 0.000000 0.000000 0.000000 -9.385133 -21.264078 -3.679799 1.417620 7.529842 21.294830 1.394572 5.934059 -25.153967 0.404833 -4.084664 -11.315068 0.000000 0.000000 0.000000 13.740263 -3.977903 1.336215 0.000000 0.000000 0.000000 0.134825 -9.520495 -10.887016 -0.054580 1.507832 -4.147261 0.812956 0.061647 4.958526 1.311393 0.206091 -1.818913 0.881516 0.103027 -4.665480 -7.993621 -5.006642 -22.397706 4.847378 -5.461739 28.920296 2.318000 -2.440999 13.987929 0.000000 0.000000 0.000000 -2.372324 4.967762 -12.779971 12.146013 -20.023178 2.152002 33.375221 -9.347168 -4.789922 0.000000 0.000000 0.000000 -7.125000 0.000000 0.000000 5.610153 35.663364 1.292220 0.000000 0.000000 0.000000 -7.065839 6.447203 19.689083 -15.536546 -24.888251 -3.448630 -15.476069 25.190707 13.330858 0.000000 0.000000 0.000000 7.125000 0.000000 0.000000 10.838856 43.526516 0.399118
-10.662706 17.965915 -16.378380 -109.406114 87.661992 -105.042160 0.000000 0.000000 0.000000 -9.324700 -20.984114 -3.760833 1.421220 7.539134 21.322703 1.391275 5.676707 -24.974455 0.407645 -4.098819 -11.354806 0.000000 0.000000 0.000000 13.769128 -4.025071 1.411998 0.000000 0.000000 0.000000 0.133090 -9.520980 -10.929121 -0.055265 1.516554 -4.171273 0.893203 0.082813 4.984568 1.304071 0.240057 -1.811006 0.825935 0.117269 -4.671969 -7.912462 -5.015929 -22.448561 4.780901 -5.480828 28.965836 2.273859 -2.448424 14.014518 0.000000 0.000000 0.000000 -2.290597 4.906095 -13.423305 12.375130 -20.364756 2.231133 33.400928 -9.703555 -4.814998 0.000000 0.000000 0.000000 -7.125000 0.000000 0.000000 5.632603 35.694482 1.293145 0.000000 0.000000 0.000000 -7.054901 6.533023 19.767644 -15.497908 -24.835160 -3.432346 -15.261859 25.048777 13.228474 0.000000 0.000000 0.000000 7.125000 0.000000 0.000000 11.004981 43.399936 0.440221
-10.656851 17.963395 -16.377005 -109.932057 87.651629 -105.601503 0.000000 0.000000 0.000000 -9.286085 -20.719521 -3.837788 1.423527 7.544872 21.340008 1.385273 5.460305 -24.801127 0.421026 -4.164619 -11.540310 0.000000 0.000000 0.000000 13.776889 -4.073281 1.488225 0.000000 0.000000 0.000000 0.129670 -9.509254 -10.986700 -0.054005 1.499705 -4.124869 0.941879 0.098790 4.999126 1.305550 0.264922 -1.806161 0.797851 0.128266 -4.675260 -7.851050 -5.012423 -22.504935 4.729222 -5.478101 29.022953 2.243391 -2.446395 14.046791 0.000000 0.000000 0.000000 -2.230538 4.830575 -13.965351 12.604153 -20.704434 2.311502 33.456035 -10.002592 -4.845711 0.000000 0.000000 0.000000 -7.125000 0.000000 0.000000 5.679951 35.733835 1.298657 0.000000 0.000000 0.000000 -6.996495 6.560059 19.575796 -15.408684 -24.712351 -3.394967 -15.004036 25.164978 13.005099 0.000000 0.000000 0.000000 7.125000 0.000000 0.000000 11.179892 43.147091 0.518240
-10.651181 17.960860 -16.376180 -110.564190 87.661608 -106.260486 0.000000 0.000000 0.000000 -9.279331 -20.489089 -3.895530 1.423340 7.544310 21.338421 1.376252 5.306575 -24.641577 0.446306 -4.285978 -11.882559 0.000000 0.000000 0.000000 13.756974 -4.119652 1.560238 0.000000 0.000000 0.000000 0.124451 -9.481305 -11.057968 -0.050211 1.446380 -3.977927 0.957828 0.104139 4.999210 1.318568 0.273999 -1.806700 0.801559 0.132609 -4.675950 -7.812206 -4.990774 -22.551502 4.684718 -5.442796 29.084809 2.226253 -2.431893 14.077645 0.000000 0.000000 0.000000 -2.205934 4.750014 -14.372212 12.833621 -21.042842 2.393286 33.515290 -10.252068 -4.874915 0.000000 0.000000 0.000000 -7.125000 0.000000 0.000000 5.730851 35.771634 1.305039 0.000000 0.000000 0.000000 -6.912525 6.539584 19.185210 -15.277513 -24.531182 -3.340350 -14.811682 25.524945 12.774050 0.000000 0.000000 0.000000 7.125000 0.000000 0.000000 11.294631 42.894043 0.595217
-10.645439 17.958850 -16.376187 -111.274721 87.689744 -106.994716 0.000000 0.000000 0.000000 -9.304619 -20.297915 -3.929118 1.421026 7.538426 21.320692 1.364540 5.214143 -24.497143 0.481805 -4.450676 -12.348348 0.000000 0.000000 0.000000 13.711048 -4.161929 1.625774 0.000000 0.000000 0.000000 0.117864 -9.439459 -11.135208 -0.044551 1.362131 -3.745839 0.949140 0.095240 4.986503 1.343094 0.262815 -1.813798 0.832818 0.127839 -4.676262 -7.787492 -4.949997 -22.576670 4.633836 -5.373203 29.143950 2.215677 -2.405368 14.100395 0.000000 0.000000 0.000000 -2.217784 4.674079 -14.650581 13.063651 -21.380278 2.476495 33.546769 -10.476403 -4.896271 0.000000 0.000000 0.000000 -7.125000 0.000000 0.000000 5.758145 35.798769 1.307537 0.000000 0.000000 0.000000 -6.848151 6.515143 18.812829 -15.141667 -24.343090 -3.284125 -14.773867 25.960093 12.659759 0.000000 0.000000 0.000000 7.125000 0.000000 0.000000 11.300476 42.774847 0.629169
-10.639517 17.957240 -16.377135 -111.984768 87.729035 -107.729861 0.000000 0.000000 0.000000 -9.353847 -20.140914 -3.939303 1.417556 7.529782 21.294662 1.351358 5.165456 -24.366378 0.523039 -4.634447 -12.869005 0.000000 0.000000 0.000000 13.647782 -4.198316 1.685765 0.000000 0.000000 0.000000 0.110797 -9.390733 -11.208166 -0.038277 1.262696 -3.471957 0.928921 0.071891 4.966006 1.376311 0.231954 -1.826866 0.881387 0.113844 -4.678254 -7.762491 -4.894790 -22.575691 4.566783 -5.278570 29.193478 2.203438 -2.370784 14.110933 0.000000 0.000000 0.000000 -2.253280 4.609761 -14.844353 13.294251 -21.716764 2.561213 33.527117 -10.703741 -4.908332 0.000000 0.000000 0.000000 -7.125000 0.000000 0.000000 5.742096 35.812127 1.301937 0.000000 0.000000 0.000000 -6.841645 6.532479 18.681035 -15.041094 -24.203334 -3.242825 -14.910389 26.262123 12.727696 0.000000 0.000000 0.000000 7.125000 0.000000 0.000000 11.196031 42.857352 0.600100
-10.633487 17.956175 -16.378867 -112.578104 87.772412 -108.351845 0.000000 0.000000 0.000000 -9.415918 -20.009033 -3.930586 1.414278 7.521308 21.269305 1.338579 5.138512 -24.250916 0.563973 -4.809651 -13.366430 0.000000 0.000000 0.000000 13.578074 -4.226479 1.743145 0.000000 0.000000 0.000000 0.104504 -9.343432 -11.268370 -0.032599 1.165289 -3.203690 0.909766 0.038228 4.943814 1.412774 0.187709 -1.843845 0.933899 0.093191 -4.683053 -7.725612 -4.833961 -22.551661 4.484433 -5.176823 29.228610 2.184346 -2.334291 14.108919 0.000000 0.000000 0.000000 -2.289879 4.559854 -15.019068 13.524101 -22.050155 2.646874 33.455127 -10.954479 -4.914453 0.000000 0.000000 0.000000 -7.125000 0.000000 0.000000 5.681960 35.815632 1.287705 0.000000 0.000000 0.000000 -6.901114 6.611231 18.883740 -14.995638 -24.140098 -3.224182 -15.155444 26.307067 12.948094 0.000000 0.000000 0.000000 7.125000 0.000000 0.000000 11.031644 43.105383 0.522798
-10.627362 17.955280 -16.380879 -112.932095 87.815405 -108.738284 0.000000 0.000000 0.000000 -9.481218 -19.893399 -3.908828 1.411941 7.515322 21.251446 1.328063 5.116527 -24.155351 0.599848 -4.957631 -13.787721 0.000000 0.000000 0.000000 13.510463 -4.244255 1.800740 0.000000 0.000000 0.000000 0.099482 -9.303733 -11.311746 -0.028161 1.083047 -2.977315 0.900003 0.002312 4.924446 1.445869 0.140936 -1.861874 0.977786 0.071068 -4.690557 -7.675018 -4.778439 -22.513834 4.400829 -5.088829 29.248254 2.159589 -2.302670 14.097964 0.000000 0.000000 0.000000 -2.304637 4.521712 -15.238281 13.750283 -22.376449 2.732431 33.355775 -11.232843 -4.919798 0.000000 0.000000 0.000000 -7.125000 0.000000 0.000000 5.598650 35.816800 1.268587 0.000000 0.000000 0.000000 -6.999984 6.736434 19.337990 -14.998056 -24.143395 -3.225178 -15.388942 26.114121 13.214847 0.000000 0.000000 0.000000 7.125000 0.000000 0.000000 10.888407 43.399838 0.435630
